<svg aria-hidden="true" style="width:0;height:0;position:absolute;overflow:hidden" xmlns="http://www.w3.org/2000/svg"><defs><symbol id="icon-search1" viewBox="0 0 20 20"><path d="M12.9 14.32a7.947 7.947 0 0 1-4.908 1.682 8 8 0 1 1 6.305-3.075l.013-.018 5.35 5.33-1.42 1.42-5.33-5.34zM8 14A6 6 0 1 0 8 2a6 6 0 1 0 0 12z"/></symbol><symbol id="icon-search" viewBox="0 0 32 32"><path fill="none" stroke="#161717" style="stroke:var(--color1,#161717)" stroke-linejoin="round" stroke-linecap="round" stroke-width="4" d="m28 28-8-8m2.666-6.666.001.137A9.334 9.334 0 1 1 4 13.327v.007c.077-5.096 4.226-9.197 9.333-9.197s9.256 4.101 9.333 9.19v.007z"/></symbol></defs></svg>