<svg aria-hidden="true" style="position: absolute; width: 0; height: 0; overflow: hidden;" version="1.1" xmlns="http://www.w3.org/2000/svg" xmlns:xlink="http://www.w3.org/1999/xlink">
<defs>
<symbol id="icon-search1" viewBox="0 0 20 20">
<path d="M12.9 14.32c-1.34 1.049-3.050 1.682-4.908 1.682-4.418 0-8-3.582-8-8s3.582-8 8-8c4.418 0 8 3.582 8 8 0 1.858-0.633 3.567-1.695 4.925l0.013-0.018 5.35 5.33-1.42 1.42-5.33-5.34zM8 14c3.314 0 6-2.686 6-6s-2.686-6-6-6v0c-3.314 0-6 2.686-6 6s2.686 6 6 6v0z"></path>
</symbol>
<symbol id="icon-search" viewBox="0 0 32 32">
<path fill="none" stroke="#161717" style="stroke: var(--color1, #161717)" stroke-linejoin="round" stroke-linecap="round" stroke-miterlimit="4" stroke-width="4" d="M28 28l-8-8M22.666 13.334c0.001 0.041 0.001 0.089 0.001 0.137 0 5.155-4.179 9.334-9.334 9.334s-9.334-4.179-9.334-9.334c0-0.048 0-0.096 0.001-0.144l-0 0.007c0.077-5.096 4.226-9.197 9.333-9.197s9.256 4.101 9.333 9.19l0 0.007z"></path>
</symbol>
</defs>
</svg>
